<?xml version="1.0" encoding="UTF-8"?>
<svg width="60px" height="60px" viewBox="0 0 60 60" version="1.1" xmlns="http://www.w3.org/2000/svg" xmlns:xlink="http://www.w3.org/1999/xlink">
    <!-- Generator: Sketch 41.1 (35376) - http://www.bohemiancoding.com/sketch -->
    <title>product-maven@2x.svg</title>
    <desc>Created with Sketch.</desc>
    <defs>
        <radialGradient cx="97.1857143%" cy="50%" fx="97.1857143%" fy="50%" r="94.8857143%" id="radialGradient-1">
            <stop stop-color="#14D37D" offset="0%"></stop>
            <stop stop-color="#3E99E8" offset="100%"></stop>
        </radialGradient>
    </defs>
    <g id="Page-1" stroke="none" stroke-width="1" fill="none" fill-rule="evenodd">
        <g id="product-maven@2x.svg">
            <g id="productArtboard-1@2x">
                <circle id="Oval" fill="url(#radialGradient-1)" cx="30" cy="30" r="30"></circle>
                <path d="M28.7314286,42.8571429 C28.7291476,42.5184212 28.8615207,42.1926675 29.0994257,41.9515476 C29.3373306,41.7104277 29.6612783,41.5736942 30,41.5714286 L30,41.5714286 C30.7100804,41.5714286 31.2857143,42.1470625 31.2857143,42.8571429 L31.2857143,42.8571429 C31.2880153,43.1988357 31.1532956,43.5272008 30.9116768,43.7688196 C30.670058,44.0104384 30.3416928,44.1451582 30,44.1428571 L30,44.1428571 C29.2966233,44.133478 28.731366,43.5605821 28.7314286,42.8571429 L28.7314286,42.8571429 Z M24.6,43.08 C24.2765692,42.9496006 24.0199814,42.6934148 23.8890749,42.370189 C23.7581684,42.0469631 23.7641739,41.684427 23.9057143,41.3657143 L23.9057143,41.3657143 C24.0363805,41.0423276 24.2920352,40.7853657 24.6147514,40.6530521 C24.9374675,40.5207385 25.2999261,40.5242739 25.62,40.6628571 L25.62,40.6628571 C25.9434308,40.7932565 26.2000186,41.0494423 26.3309251,41.3726682 C26.4618316,41.695894 26.4558261,42.0584302 26.3142857,42.3771429 L26.3142857,42.3771429 C26.1158623,42.8601424 25.6450253,43.1751627 25.1228571,43.1742857 L25.1228571,43.1742857 C24.9441626,43.176378 24.7667081,43.144378 24.6,43.08 L24.6,43.08 Z M33.7371429,42.3685714 C33.5985596,42.0484976 33.5950242,41.6860389 33.7273378,41.3633228 C33.8596515,41.0406067 34.1166133,40.7849519 34.44,40.6542857 L34.44,40.6542857 C34.7589906,40.5152234 35.1205407,40.5104696 35.4430772,40.6410969 C35.7656138,40.7717242 36.0219624,41.026727 36.1542857,41.3485714 L36.1542857,41.3485714 C36.2933481,41.667562 36.2981019,42.0291121 36.1674746,42.3516486 C36.0368473,42.6741852 35.7818445,42.9305338 35.46,43.0628571 L35.46,43.0628571 C35.3025672,43.1291969 35.1336891,43.1641372 34.9628571,43.1657143 L34.9628571,43.1657143 C34.428955,43.1783258 33.9421261,42.8617168 33.7371429,42.3685714 Z M20.0228571,40.02 C19.7794552,39.7785858 19.642545,39.4499625 19.642545,39.1071429 C19.642545,38.7643232 19.7794552,38.4356999 20.0228571,38.1942857 L20.0228571,38.1942857 C20.2628005,37.9513954 20.5900073,37.8146905 20.9314286,37.8146905 C21.2728499,37.8146905 21.6000567,37.9513954 21.84,38.1942857 L21.84,38.1942857 C22.3413486,38.6962587 22.3413486,39.5094556 21.84,40.0114286 L21.84,40.0114286 C21.6007566,40.2550605 21.2728773,40.3911613 20.9314286,40.3885714 L20.9314286,40.3885714 C20.5888157,40.3928304 20.2586753,40.2601571 20.0142857,40.02 L20.0228571,40.02 Z M38.1942857,40.02 C37.9513954,39.7800567 37.8146905,39.4528499 37.8146905,39.1114286 C37.8146905,38.7700073 37.9513954,38.4428005 38.1942857,38.2028571 L38.1942857,38.2028571 C38.434229,37.9599668 38.7614358,37.823262 39.1028571,37.823262 C39.4442785,37.823262 39.7714852,37.9599668 40.0114286,38.2028571 L40.0114286,38.2028571 C40.2543189,38.4428005 40.3910237,38.7700073 40.3910237,39.1114286 C40.3910237,39.4528499 40.2543189,39.7800567 40.0114286,40.02 L40.0114286,40.02 C39.7710799,40.2619902 39.4439236,40.397791 39.1028571,40.3971429 L39.1028571,40.3971429 C38.7554628,40.3914006 38.4249645,40.2462284 38.1857143,39.9942857 L38.1942857,40.02 Z M16.9371429,35.4342857 C16.7956025,35.115573 16.789597,34.7530369 16.9205035,34.429811 C17.0514099,34.1065852 17.3079978,33.8503994 17.6314286,33.72 L17.6314286,33.72 C17.9498461,33.575924 18.3133962,33.5686336 18.6373338,33.6998283 C18.9612714,33.831023 19.2172914,34.0892393 19.3457143,34.4142857 L19.3457143,34.4142857 C19.4872547,34.7329984 19.4932602,35.0955345 19.3623537,35.4187604 C19.2314472,35.7419862 18.9748593,35.998172 18.6514286,36.1285714 L18.6514286,36.1285714 C18.4974289,36.1962503 18.3310722,36.2312727 18.1628571,36.2314286 L18.1628571,36.2314286 C17.6282596,36.2465015 17.1401582,35.929065 16.9371429,35.4342857 Z M41.3914286,36.1028571 C41.0663822,35.9744342 40.8081659,35.7184143 40.6769712,35.3944767 C40.5457764,35.0705391 40.5530668,34.7069889 40.6971429,34.3885714 L40.6971429,34.3885714 C40.8275422,34.0651407 41.083728,33.8085528 41.4069539,33.6776463 C41.7301798,33.5467398 42.0927159,33.5527453 42.4114286,33.6942857 L42.4114286,33.6942857 C42.7348593,33.8246851 42.9914472,34.0808709 43.1223537,34.4040968 C43.2532602,34.7273226 43.2472547,35.0898587 43.1057143,35.4085714 L43.1057143,35.4085714 C42.9054181,35.8900361 42.4357497,36.2042746 41.9142857,36.2057143 L41.9142857,36.2057143 C41.7346133,36.209634 41.556228,36.1745418 41.3914286,36.1028571 L41.3914286,36.1028571 Z M15.8571429,30 C15.8571429,29.2899196 16.4327768,28.7142857 17.1428571,28.7142857 L17.1428571,28.7142857 C17.8529375,28.7142857 18.4285714,29.2899196 18.4285714,30 L18.4285714,30 C18.4285714,30.7100804 17.8529375,31.2857143 17.1428571,31.2857143 L17.1428571,31.2857143 C16.4327768,31.2857143 15.8571429,30.7100804 15.8571429,30 Z M41.5714286,30 L41.5714286,30 L41.5714286,30 L41.5714286,30 L41.5714286,30 C41.5549339,29.6495158 41.6833601,29.3076824 41.9265526,29.0547621 C42.1697451,28.8018419 42.5062815,28.6601144 42.8571429,28.6628571 L42.8571429,28.6628571 C43.1981378,28.6605763 43.5260717,28.7938524 43.768799,29.0333648 C44.0115263,29.2728772 44.1491628,29.599005 44.1514286,29.94 L44.1514286,29.94 L44.1514286,29.94 L44.1514286,29.94 L44.1514286,29.94 L44.1514286,29.94 C44.1679192,30.2927583 44.0385881,30.63677 43.7937888,30.8912964 C43.5489895,31.1458228 43.2102758,31.2884538 42.8571429,31.2857143 L42.8571429,31.2857143 C42.1470625,31.2857143 41.5714286,30.7100804 41.5714286,30 L41.5714286,30 Z M17.5714286,26.2971429 C17.2479978,26.1667435 16.9914099,25.9105577 16.8605035,25.5873318 C16.729597,25.264106 16.7356025,24.9015698 16.8771429,24.5828571 L16.8771429,24.5828571 C17.0058647,24.2578849 17.261349,23.9993275 17.584759,23.8667293 C17.9081691,23.7341312 18.2716263,23.7389226 18.5914286,23.88 L18.5914286,23.88 C18.9148593,24.0103994 19.1714472,24.2665852 19.3023537,24.589811 C19.4332602,24.9130369 19.4272547,25.275573 19.2857143,25.5942857 L19.2857143,25.5942857 C19.0872908,26.0772852 18.6164539,26.3923056 18.0942857,26.3914286 L18.0942857,26.3914286 C17.9300049,26.3882946 17.7675457,26.3563829 17.6142857,26.2971429 L17.5714286,26.2971429 Z M40.6371429,25.5257143 C40.4900301,25.2087088 40.4802116,24.845055 40.6100043,24.5205732 C40.7397971,24.1960913 40.9977027,23.9395272 41.3228571,23.8114286 L41.3228571,23.8114286 C41.6415698,23.6698882 42.004106,23.6638827 42.3273318,23.7947892 C42.6505577,23.9256956 42.9067435,24.1822835 43.0371429,24.5057143 L43.0371429,24.5057143 C43.1791577,24.8233411 43.1863809,25.1849636 43.0571631,25.5080081 C42.9279453,25.8310526 42.6733199,26.0879356 42.3514286,26.22 L42.3514286,26.22 C42.1941292,26.2867682 42.0251652,26.3217262 41.8542857,26.3228571 L41.8542857,26.3228571 C41.3376535,26.3191205 40.8741621,26.0044876 40.68,25.5257143 L40.6371429,25.5257143 Z M19.9371429,21.84 C19.4357942,21.3380271 19.4357942,20.5248301 19.9371429,20.0228571 L19.9371429,20.0228571 C20.4391158,19.5215085 21.2523128,19.5215085 21.7542857,20.0228571 L21.7542857,20.0228571 C22.2556344,20.5248301 22.2556344,21.3380271 21.7542857,21.84 L21.7542857,21.84 C21.5128699,22.0803955 21.1864049,22.2159092 20.8457143,22.2171429 L20.8457143,22.2171429 C20.5187635,22.210219 20.2077159,22.0747131 19.98,21.84 L19.9371429,21.84 Z M38.1085714,21.7885714 C37.6072228,21.2865985 37.6072228,20.4734015 38.1085714,19.9714286 L38.1085714,19.9714286 C38.6134812,19.469092 39.4293759,19.469092 39.9342857,19.9714286 L39.9342857,19.9714286 C40.4356344,20.4734015 40.4356344,21.2865985 39.9342857,21.7885714 L39.9342857,21.7885714 C39.6950423,22.0322033 39.367163,22.1683042 39.0257143,22.1657143 L39.0257143,22.1657143 C38.6967595,22.1565209 38.3838523,22.0215414 38.1514286,21.7885714 L38.1085714,21.7885714 Z M23.8628571,18.6257143 C23.7208423,18.3080875 23.7136191,17.946465 23.8428369,17.6234205 C23.9720547,17.300376 24.2266801,17.0434929 24.5485714,16.9114286 L24.5485714,16.9114286 C24.8669889,16.7673525 25.2305391,16.7600622 25.5544767,16.8912569 C25.8784143,17.0224516 26.1344342,17.2806679 26.2628571,17.6057143 L26.2628571,17.6057143 C26.404872,17.9233411 26.4120952,18.2849636 26.2828774,18.6080081 C26.1536595,18.9310526 25.8990342,19.1879356 25.5771429,19.32 L25.5771429,19.32 C25.4193102,19.3840494 25.2503238,19.4160986 25.08,19.4142857 L25.08,19.4142857 C24.5492175,19.4321185 24.0635076,19.1174332 23.8628571,18.6257143 L23.8628571,18.6257143 Z M34.3885714,19.2942857 L34.3885714,19.2942857 C34.0635991,19.1655639 33.8050417,18.9100796 33.6724436,18.5866695 C33.5398455,18.2632595 33.5446369,17.8998022 33.6857143,17.58 L33.6857143,17.58 C33.8124386,17.2534128 34.0677493,16.9932161 34.3918758,16.8603242 C34.7160023,16.7274323 35.0804867,16.7335131 35.4,16.8771429 L35.4,16.8771429 C35.7234308,17.0075422 35.9800186,17.263728 36.1109251,17.5869539 C36.2418316,17.9101798 36.2358261,18.2727159 36.0942857,18.5914286 L36.0942857,18.5914286 C35.8977732,19.0759872 35.4257374,19.3918098 34.9028571,19.3885714 L34.9028571,19.3885714 C34.7270585,19.3893797 34.55265,19.3574049 34.3885714,19.2942857 L34.3885714,19.2942857 Z M28.6714286,17.1428571 C28.6714286,16.4327768 29.2470625,15.8571429 29.9571429,15.8571429 L29.9571429,15.8571429 C30.6672232,15.8571429 31.2428571,16.4327768 31.2428571,17.1428571 L31.2428571,17.1428571 C31.2432426,17.836532 30.6932895,18.405449 30,18.4285714 L30,18.4285714 C29.6523148,18.4377917 29.31555,18.3066898 29.0656148,18.0648171 C28.8156797,17.8229444 28.6736097,17.4906577 28.6714286,17.1428571 Z" id="Shape" fill="#FFFFFF"></path>
                <g id="Group" opacity="0.66" transform="translate(12.000000, 12.000000)" fill="#FFFFFF">
                    <path d="M17.1428571,35.1428571 C17.1428571,34.6694702 17.5266131,34.2857143 18,34.2857143 L18,34.2857143 C18.4733869,34.2857143 18.8571429,34.6694702 18.8571429,35.1428571 L18.8571429,35.1428571 C18.8571429,35.6162441 18.4733869,36 18,36 L18,36 C17.5266131,36 17.1428571,35.6162441 17.1428571,35.1428571 Z M11.1428571,34.6371429 L11.1428571,34.6371429 C10.9307392,34.5516199 10.7615973,34.384871 10.6730608,34.173993 C10.5845242,33.9631151 10.5839366,33.7255992 10.6714286,33.5142857 L10.6714286,33.5142857 C10.7585966,33.3037144 10.9260342,33.1365263 11.1367352,33.0496725 C11.3474362,32.9628186 11.5840516,32.9634505 11.7942857,33.0514286 L11.7942857,33.0514286 C12.2281448,33.232972 12.4346871,33.7302033 12.2571429,34.1657143 L12.2571429,34.1657143 C12.1256541,34.4857933 11.8146016,34.6954156 11.4685714,34.6971429 L11.4685714,34.6971429 C11.3568127,34.7027249 11.2452911,34.6821814 11.1428571,34.6371429 L11.1428571,34.6371429 Z M23.7857143,34.1657143 C23.6977362,33.9554802 23.6971043,33.7188648 23.7839582,33.5081638 C23.870812,33.2974628 24.0380002,33.1300251 24.2485714,33.0428571 L24.2485714,33.0428571 C24.4588055,32.9548791 24.6954209,32.9542472 24.9061219,33.041101 C25.116823,33.1279549 25.2842606,33.295143 25.3714286,33.5057143 L25.3714286,33.5057143 C25.4567494,33.7225156 25.4501394,33.9647079 25.3531204,34.1765328 C25.2561014,34.3883576 25.0770336,34.5515617 24.8571429,34.6285714 L24.8571429,34.6285714 C24.7540952,34.6724923 24.6434376,34.6957886 24.5314286,34.6971429 L24.5314286,34.6971429 C24.1979704,34.681985 23.9036435,34.4746184 23.7771429,34.1657143 L23.7857143,34.1657143 Z M5.29714286,30.7371429 L5.29714286,30.7371429 C4.96480835,30.402825 4.96480835,29.8628892 5.29714286,29.5285714 L5.29714286,29.5285714 C5.63146068,29.1962369 6.17139647,29.1962369 6.50571429,29.5285714 L6.50571429,29.5285714 C6.66798227,29.6895142 6.75925571,29.9085964 6.75925571,30.1371429 C6.75925571,30.3656893 6.66798227,30.5847715 6.50571429,30.7457143 L6.50571429,30.7457143 C6.34395529,30.9061599 6.12497399,30.9956029 5.89714286,30.9942857 L5.89714286,30.9942857 C5.66931173,30.9956029 5.45033043,30.9061599 5.28857143,30.7457143 L5.29714286,30.7371429 Z M29.5285714,30.7371429 C29.1962369,30.402825 29.1962369,29.8628892 29.5285714,29.5285714 L29.5285714,29.5285714 C29.6895142,29.3663034 29.9085964,29.27503 30.1371429,29.27503 C30.3656893,29.27503 30.5847715,29.3663034 30.7457143,29.5285714 L30.7457143,29.5285714 C31.0780488,29.8628892 31.0780488,30.402825 30.7457143,30.7371429 L30.7457143,30.7371429 C30.5839553,30.8975884 30.364974,30.9870315 30.1371429,30.9857143 L30.1371429,30.9857143 C29.9038392,30.9848239 29.680979,30.8888702 29.52,30.72 L29.5285714,30.7371429 Z M1.38,24.9171429 C1.29202196,24.7069087 1.29139004,24.4702934 1.3782439,24.2595924 C1.46509776,24.0488913 1.63228587,23.8814537 1.84285714,23.7942857 L1.84285714,23.7942857 C2.27836808,23.6167415 2.77559945,23.8232838 2.95714286,24.2571429 L2.95714286,24.2571429 C3.14137986,24.6926619 2.93809937,25.1951099 2.50285714,25.38 L2.50285714,25.38 C2.39669949,25.4235683 2.28330854,25.446828 2.16857143,25.4485714 L2.16857143,25.4485714 C1.82254124,25.4468442 1.5114888,25.2372219 1.38,24.9171429 L1.38,24.9171429 Z M33.5142857,25.3457143 C33.0804266,25.1641709 32.8738844,24.6669395 33.0514286,24.2314286 L33.0514286,24.2314286 C33.1385966,24.0208573 33.3060342,23.8536692 33.5167352,23.7668153 C33.7274362,23.6799615 33.9640516,23.6805934 34.1742857,23.7685714 L34.1742857,23.7685714 C34.6081448,23.9501148 34.8146871,24.4473462 34.6371429,24.8828571 L34.6371429,24.8828571 C34.504468,25.2058235 34.1891516,25.4160344 33.84,25.4142857 L33.84,25.4142857 C33.7277048,25.4156822 33.6164862,25.3922678 33.5142857,25.3457143 L33.5142857,25.3457143 Z M0,18 L0,18 C0,17.5266131 0.383755929,17.1428571 0.857142857,17.1428571 L0.857142857,17.1428571 C1.33052979,17.1428571 1.71428571,17.5266131 1.71428571,18 L1.71428571,18 C1.71428571,18.4733869 1.33052979,18.8571429 0.857142857,18.8571429 L0.857142857,18.8571429 C0.383755929,18.8571429 0,18.4733869 0,18 Z M34.2857143,18 L34.2857143,18 L34.2857143,18 L34.2857143,17.9485714 L34.2857143,17.9485714 C34.2857143,17.4751845 34.6694702,17.0914286 35.1428571,17.0914286 L35.1428571,17.0914286 C35.6162441,17.0914286 36,17.4751845 36,17.9485714 L36,17.9485714 L36,18 L36,18 L36,18 L36,18 C36,18.4733869 35.6162441,18.8571429 35.1428571,18.8571429 L35.1428571,18.8571429 C34.6694702,18.8571429 34.2857143,18.4733869 34.2857143,18 Z M1.81714286,12.2657143 C1.37993281,12.0875117 1.16915253,11.5893038 1.34571429,11.1514286 L1.34571429,11.1514286 C1.43123728,10.9393106 1.59798618,10.7701687 1.80886411,10.6816322 C2.01974204,10.5930956 2.25725799,10.592508 2.46857143,10.68 L2.46857143,10.68 C2.6791427,10.767168 2.84633081,10.9346056 2.93318467,11.1453066 C3.02003853,11.3560077 3.01940661,11.592623 2.93142857,11.8028571 L2.93142857,11.8028571 C2.79875368,12.1258235 2.48343731,12.3360344 2.13428571,12.3342857 L2.13428571,12.3342857 C2.02516984,12.3318286 1.91752725,12.3085545 1.81714286,12.2657143 Z M33.0257143,11.7085714 C32.8414773,11.2730524 33.0447578,10.7706044 33.48,10.5857143 L33.48,10.5857143 C33.6912071,10.4950249 33.9299886,10.492964 34.1427296,10.5799944 C34.3554705,10.6670248 34.5243428,10.8358532 34.6114286,11.0485714 L34.6114286,11.0485714 C34.7956656,11.4840905 34.5923851,11.9865385 34.1571429,12.1714286 L34.1571429,12.1714286 C34.050476,12.2122621 33.9370665,12.2326177 33.8228571,12.2314286 L33.8228571,12.2314286 C33.4757902,12.2346104 33.1610615,12.0281754 33.0257143,11.7085714 L33.0257143,11.7085714 Z M5.24571429,6.51428571 C4.91337978,6.1799679 4.91337978,5.6400321 5.24571429,5.30571429 L5.24571429,5.30571429 C5.40665709,5.1434463 5.62573925,5.05217286 5.85428571,5.05217286 C6.08283217,5.05217286 6.30191434,5.1434463 6.46285714,5.30571429 L6.46285714,5.30571429 C6.79519165,5.6400321 6.79519165,6.1799679 6.46285714,6.51428571 L6.46285714,6.51428571 C6.30109815,6.6747313 6.08211684,6.76417436 5.85428571,6.76285714 L5.85428571,6.76285714 C5.62645458,6.76417436 5.40747328,6.6747313 5.24571429,6.51428571 Z M29.4771429,6.44571429 C29.3148749,6.28477149 29.2236014,6.06568932 29.2236014,5.83714286 C29.2236014,5.6085964 29.3148749,5.38951423 29.4771429,5.22857143 L29.4771429,5.22857143 C29.6380857,5.06630344 29.8571678,4.97503001 30.0857143,4.97503001 C30.3142607,4.97503001 30.5333429,5.06630344 30.6942857,5.22857143 L30.6942857,5.22857143 C31.0266202,5.56288925 31.0266202,6.10282504 30.6942857,6.43714286 L30.6942857,6.43714286 C30.5339388,6.60073341 30.3147822,6.69333478 30.0857143,6.69428571 L30.0857143,6.69428571 C29.8578832,6.69560294 29.6389019,6.60615987 29.4771429,6.44571429 L29.4771429,6.44571429 Z M10.62,2.50285714 C10.4424558,2.0673462 10.648998,1.57011484 11.0828571,1.38857143 L11.0828571,1.38857143 C11.5160201,1.21000966 12.0122975,1.41233814 12.1971429,1.84285714 L12.1971429,1.84285714 C12.3813799,2.27837621 12.1780994,2.78082421 11.7428571,2.96571429 L11.7428571,2.96571429 C11.6378557,3.01296476 11.5236954,3.03638225 11.4085714,3.03428571 L11.4085714,3.03428571 C11.0563077,3.03955881 10.7366929,2.82874907 10.6028571,2.50285714 L10.62,2.50285714 Z M24.1971429,2.93142857 C23.9865716,2.84426059 23.8193835,2.67682296 23.7325296,2.46612193 C23.6456758,2.25542089 23.6463077,2.01880554 23.7342857,1.80857143 L23.7342857,1.80857143 C23.9158291,1.37471233 24.4130605,1.16817007 24.8485714,1.34571429 L24.8485714,1.34571429 C25.2857815,1.52391683 25.4965618,2.02212477 25.32,2.46 L25.32,2.46 C25.1873251,2.78296636 24.8720087,2.99317727 24.5228571,2.99142857 L24.5228571,2.99142857 C24.4056707,2.99508777 24.2889794,2.9746668 24.18,2.93142857 L24.1971429,2.93142857 Z M17.0914286,0.857142857 C17.0914286,0.383755929 17.4751845,0 17.9485714,0 L17.9485714,0 C18.4219584,0 18.8057143,0.383755929 18.8057143,0.857142857 L18.8057143,0.857142857 C18.8057143,1.33052979 18.4219584,1.71428571 17.9485714,1.71428571 L17.9485714,1.71428571 C17.4751845,1.71428571 17.0914286,1.33052979 17.0914286,0.857142857 Z" id="Shape"></path>
                </g>
                <g id="Group" opacity="0.33" transform="translate(7.714286, 7.714286)" fill="#FFFFFF">
                    <path d="M21.8828571,43.7142857 C21.8805532,43.6014172 21.9237839,43.4923732 22.0028003,43.4117443 C22.0818167,43.3311153 22.1899651,43.2856908 22.3028571,43.2857143 L22.3028571,43.2857143 C22.4179991,43.283411 22.529223,43.327545 22.6114592,43.4081688 C22.6936954,43.4887925 22.740023,43.5991207 22.74,43.7142857 L22.74,43.7142857 C22.7354399,43.9490644 22.5462072,44.1382971 22.3114286,44.1428571 L22.3114286,44.1428571 C22.1977644,44.1428571 22.0887555,44.0977042 22.0083828,44.0173315 C21.9280101,43.9369587 21.8828571,43.8279499 21.8828571,43.7142857 Z M13.9457143,42.4971429 L13.9457143,42.4971429 C13.8393552,42.4536 13.754941,42.3691638 13.7114258,42.2627934 C13.6679106,42.1564229 13.668941,42.0370321 13.7142857,41.9314286 L13.7142857,41.9314286 C13.8050574,41.714499 14.0536731,41.6112279 14.2714286,41.7 L14.2714286,41.7 C14.3777877,41.7435429 14.4622019,41.827979 14.5057171,41.9343495 C14.5492323,42.04072 14.5482018,42.1601108 14.5028571,42.2657143 L14.5028571,42.2657143 C14.4363232,42.4239463 14.280198,42.5257671 14.1085714,42.5228571 L14.1085714,42.5228571 C14.0533003,42.5225391 13.9983946,42.5138698 13.9457143,42.4971429 L13.9457143,42.4971429 Z M30.1028571,42.2485714 C30.0181965,42.02847 30.1196337,41.7805125 30.3342857,41.6828571 L30.3342857,41.6828571 C30.5543872,41.5981965 30.8023446,41.6996337 30.9,41.9142857 L30.9,41.9142857 C30.9846606,42.1343872 30.8832235,42.3823446 30.6685714,42.48 L30.6685714,42.48 C30.6145881,42.4881029 30.5596976,42.4881029 30.5057143,42.48 L30.5057143,42.48 C30.338156,42.4865085 30.1816412,42.3965958 30.1028571,42.2485714 L30.1028571,42.2485714 Z M6.85714286,37.7657143 L6.85714286,37.7657143 C6.77381293,37.6864335 6.72664278,37.5764473 6.72664278,37.4614286 C6.72664278,37.3464098 6.77381293,37.2364236 6.85714286,37.1571429 L6.85714286,37.1571429 C6.93614022,37.0765165 7.04426598,37.0310816 7.15714286,37.0310816 C7.27001974,37.0310816 7.3781455,37.0765165 7.45714286,37.1571429 L7.45714286,37.1571429 C7.54047278,37.2364236 7.58764294,37.3464098 7.58764294,37.4614286 C7.58764294,37.5764473 7.54047278,37.6864335 7.45714286,37.7657143 L7.45714286,37.7657143 C7.37567146,37.8418285 7.26863192,37.8846443 7.15714286,37.8857143 L7.15714286,37.8857143 C7.04531674,37.8863861 6.9376571,37.8433222 6.85714286,37.7657143 Z M37.14,37.7657143 C36.9756143,37.5961597 36.9756143,37.3266974 37.14,37.1571429 L37.14,37.1571429 C37.3095546,36.9927572 37.5790168,36.9927572 37.7485714,37.1571429 L37.7485714,37.1571429 C37.8726354,37.3269303 37.8582316,37.5609912 37.7142857,37.7142857 L37.7142857,37.7142857 C37.6351584,37.7950347 37.5273297,37.841247 37.4142857,37.8428571 L37.4142857,37.8428571 C37.3102543,37.8348182 37.2127289,37.7891032 37.14,37.7142857 L37.14,37.7657143 Z M2.1,30.6857143 C2.01609304,30.4679982 2.11796025,30.2227624 2.33142857,30.1285714 L2.33142857,30.1285714 C2.4358137,30.0835087 2.55400856,30.0826913 2.65900695,30.126306 C2.76400534,30.1699207 2.84683542,30.2542408 2.88857143,30.36 L2.88857143,30.36 C2.9341091,30.4633002 2.93614384,30.5805834 2.89421678,30.685401 C2.85228973,30.7902186 2.76993138,30.8737445 2.66571429,30.9171429 L2.66571429,30.9171429 C2.6092332,30.9294417 2.5507668,30.9294417 2.49428571,30.9171429 L2.49428571,30.9171429 C2.32977623,30.9203525 2.17739965,30.830914 2.1,30.6857143 L2.1,30.6857143 Z M41.9228571,30.8571429 C41.7059276,30.7663712 41.6026565,30.5177555 41.6914286,30.3 L41.6914286,30.3 C41.7857718,30.0819373 42.0370134,29.9791566 42.2571429,30.0685714 L42.2571429,30.0685714 C42.4706112,30.1627624 42.5724784,30.4079982 42.4885714,30.6257143 L42.4885714,30.6257143 C42.4216535,30.7886602 42.2618462,30.8940651 42.0857143,30.8914286 L42.0857143,30.8914286 C42.0296075,30.8917176 41.9740851,30.8800287 41.9228571,30.8571429 L41.9228571,30.8571429 Z M0.428571429,22.2857143 C0.428571429,22.0490208 0.620449393,21.8571429 0.857142857,21.8571429 L0.857142857,21.8571429 C1.09383632,21.8571429 1.28571429,22.0490208 1.28571429,22.2857143 L1.28571429,22.2857143 C1.28571429,22.5224077 1.09383632,22.7142857 0.857142857,22.7142857 L0.857142857,22.7142857 C0.620449393,22.7142857 0.428571429,22.5224077 0.428571429,22.2857143 Z M43.2857143,22.2857143 L43.2857143,22.2857143 L43.2857143,22.2857143 L43.2857143,22.2 L43.2857143,22.2 C43.2833554,22.0856289 43.3277504,21.9752442 43.4086401,21.8943544 C43.4895299,21.8134647 43.5999147,21.7690696 43.7142857,21.7714286 L43.7142857,21.7714286 C43.9476718,21.7713819 44.1381894,21.9580891 44.1428571,22.1914286 L44.1428571,22.1914286 L44.1428571,22.2428571 L44.1428571,22.2428571 L44.1428571,22.2857143 L44.1428571,22.2857143 C44.1428571,22.5224077 43.9509792,22.7142857 43.7142857,22.7142857 L43.7142857,22.7142857 C43.4775923,22.7142857 43.2857143,22.5224077 43.2857143,22.2857143 Z M2.29714286,14.5285714 C2.0824908,14.4309161 1.98105365,14.1829586 2.06571429,13.9628571 L2.06571429,13.9628571 C2.16336964,13.7482051 2.41132711,13.6467679 2.63142857,13.7314286 L2.63142857,13.7314286 C2.84489689,13.8256195 2.9467641,14.0708554 2.86285714,14.2885714 L2.86285714,14.2885714 C2.79593926,14.4515174 2.63613188,14.5569223 2.46,14.5542857 L2.46,14.5542857 L2.29714286,14.5285714 Z M41.6571429,14.1771429 C41.5724822,13.9570414 41.6739194,13.7090839 41.8885714,13.6114286 L41.8885714,13.6114286 C41.994175,13.5660839 42.1135657,13.5650534 42.2199362,13.6085686 C42.3263067,13.6520838 42.4107428,13.736498 42.4542857,13.8428571 L42.4542857,13.8428571 C42.5381927,14.0605732 42.4363255,14.3058091 42.2228571,14.4 L42.2228571,14.4 C42.1664377,14.4128592 42.107848,14.4128592 42.0514286,14.4 L42.0514286,14.4 C41.8882756,14.4068983 41.7353805,14.3204794 41.6571429,14.1771429 Z M6.79714286,7.47428571 C6.71600886,7.39381431 6.67037215,7.28427323 6.67037215,7.17 C6.67037215,7.05572677 6.71600886,6.94618569 6.79714286,6.86571429 L6.79714286,6.86571429 C6.96669744,6.70132861 7.23615971,6.70132861 7.40571429,6.86571429 L7.40571429,6.86571429 C7.48684828,6.94618569 7.532485,7.05572677 7.532485,7.17 C7.532485,7.28427323 7.48684828,7.39381431 7.40571429,7.47428571 L7.40571429,7.47428571 C7.32713735,7.55583522 7.21895836,7.60219764 7.10571429,7.60285714 L7.10571429,7.60285714 C6.98909087,7.60671117 6.87652571,7.55980902 6.79714286,7.47428571 Z M37.08,7.38 L37.08,7.38 C36.9993737,7.30100264 36.9539388,7.19287688 36.9539388,7.08 C36.9539388,6.96712312 36.9993737,6.85899736 37.08,6.78 L37.08,6.78 C37.1604714,6.69886601 37.2700125,6.65322929 37.3842857,6.65322929 C37.4985589,6.65322929 37.6081,6.69886601 37.6885714,6.78 L37.6885714,6.78 C37.8529571,6.94955458 37.8529571,7.21901685 37.6885714,7.38857143 L37.6885714,7.38857143 C37.60681,7.47061692 37.4958288,7.51685911 37.38,7.51714286 L37.38,7.51714286 C37.2657078,7.51328447 37.1576978,7.46390847 37.08,7.38 L37.08,7.38 Z M13.6371429,2.67428571 C13.5912977,2.56975795 13.5890427,2.4512607 13.6308776,2.34506433 C13.6727125,2.23886796 13.755181,2.15374664 13.86,2.10857143 L13.86,2.10857143 C14.0801015,2.02391079 14.3280589,2.12534794 14.4257143,2.34 L14.4257143,2.34 C14.5144864,2.55775547 14.4112153,2.80637115 14.1942857,2.89714286 L14.1942857,2.89714286 C14.1406478,2.90900351 14.0850664,2.90900351 14.0314286,2.89714286 L14.0314286,2.89714286 C13.8672594,2.90839026 13.7121786,2.82073594 13.6371429,2.67428571 Z M30.2571429,2.85428571 C30.0402133,2.76351401 29.9369422,2.51489833 30.0257143,2.29714286 L30.0257143,2.29714286 C30.0676865,2.19136814 30.1500034,2.10662906 30.2545168,2.0616079 C30.3590302,2.01658674 30.4771581,2.01498034 30.5828571,2.05714286 L30.5828571,2.05714286 C30.6892163,2.10068573 30.7736305,2.1851219 30.8171457,2.29149236 C30.8606608,2.39786282 30.8596304,2.51725361 30.8142857,2.62285714 L30.8142857,2.62285714 C30.7477517,2.78108916 30.5916266,2.88290994 30.42,2.88 L30.42,2.88 C30.3647181,2.87981531 30.3097923,2.87114282 30.2571429,2.85428571 L30.2571429,2.85428571 Z M21.7885714,0.857142857 C21.7885714,0.620449393 21.9804494,0.428571429 22.2171429,0.428571429 L22.2171429,0.428571429 C22.4538363,0.428571429 22.6457143,0.620449393 22.6457143,0.857142857 L22.6457143,0.857142857 C22.6457143,1.09383632 22.4538363,1.28571429 22.2171429,1.28571429 L22.2171429,1.28571429 C21.9804494,1.28571429 21.7885714,1.09383632 21.7885714,0.857142857 Z" id="Shape"></path>
                </g>
            </g>
        </g>
    </g>
</svg>